<!-- Generator: Adobe Illustrator 22.1.0, SVG Export Plug-In  -->
<svg version="1.1"
	 xmlns="http://www.w3.org/2000/svg" xmlns:xlink="http://www.w3.org/1999/xlink" xmlns:a="http://ns.adobe.com/AdobeSVGViewerExtensions/3.0/"
	 x="0px" y="0px" width="139px" height="139px" viewBox="0 0 139 139" style="enable-background:new 0 0 139 139;"
	 xml:space="preserve">
<style type="text/css">
	.st0{fill:#FFFFFF;}
</style>
<defs>
</defs>
<g>
	<path class="st0" d="M124.1,124.1V64.5h-19.9V49.6h24.8c5.5,0,9.9,4.5,9.9,9.9v69.5c0,5.5-4.5,9.9-9.9,9.9h-24.8v-14.9H124.1z"/>
	<path class="st0" d="M79.4,0H9.9C4.5,0,0,4.5,0,9.9v119.1c0,5.5,4.5,9.9,9.9,9.9h69.5c5.5,0,9.9-4.5,9.9-9.9V9.9
		C89.4,4.5,84.9,0,79.4,0z M49.6,119.1v9.9h-9.9v-9.9H49.6z M74.5,14.9v94.3H14.9V14.9H74.5z"/>
	<polygon class="st0" points="119.1,19.9 119.1,29.8 104.2,17.5 119.1,5 119.1,14.9 134,14.9 134,39.7 129.1,39.7 129.1,19.9 	"/>
</g>
</svg>
