<!-- Generator: Adobe Illustrator 22.1.0, SVG Export Plug-In  -->
<svg version="1.1"
	 xmlns="http://www.w3.org/2000/svg" xmlns:xlink="http://www.w3.org/1999/xlink" xmlns:a="http://ns.adobe.com/AdobeSVGViewerExtensions/3.0/"
	 x="0px" y="0px" width="512px" height="512px" viewBox="0 0 512 512" style="enable-background:new 0 0 512 512;"
	 xml:space="preserve">
<style type="text/css">
	.st0{fill:#061898;}
	.st1{fill:#FFFFFF;}
	.st2{fill:#F22132;}
</style>
<defs>
</defs>
<g>
	<path class="st0" d="M0,256c0,99.2,56.5,185.3,139,227.8V28.2C56.5,70.7,0,156.8,0,256z"/>
	<path class="st1" d="M256,0c-14.7,0-29,1.2-43,3.6c-26.2,4.4-51.1,12.9-74,24.6v455.5c22.9,11.8,47.8,20.2,74,24.6
		c14,2.4,28.3,3.6,43,3.6c39.8,0,77.4-9.1,111-25.3V25.3C333.4,9.1,295.8,0,256,0z"/>
	<path class="st2" d="M429,67.3c-18.4-16.9-39.3-31.1-62-42.1v461.5c22.7-11,43.6-25.2,62-42.1c51-46.8,83-114,83-188.7
		S480,114.1,429,67.3z"/>
</g>
</svg>
