<!-- Generator: Adobe Illustrator 22.1.0, SVG Export Plug-In  -->
<svg version="1.1"
	 xmlns="http://www.w3.org/2000/svg" xmlns:xlink="http://www.w3.org/1999/xlink" xmlns:a="http://ns.adobe.com/AdobeSVGViewerExtensions/3.0/"
	 x="0px" y="0px" width="391.5px" height="391.5px" viewBox="0 0 391.5 391.5" style="enable-background:new 0 0 391.5 391.5;"
	 xml:space="preserve">
<style type="text/css">
	.st0{fill:#006600;}
	.st1{fill:#FF0000;}
	.st2{fill:#FFFF00;}
	.st3{fill:#FFFFFF;stroke:#FF0000;stroke-width:17;}
	.st4{fill:#003399;}
</style>
<defs>
</defs>
<g>
	<path class="st0" d="M154.9,4.3C66.4,23.1,0,101.7,0,195.7s66.4,172.6,154.9,191.4v-96.7V4.3z"/>
	<path class="st1" d="M195.7,0c-14,0-27.7,1.5-40.9,4.3v382.9c13.2,2.8,26.9,4.3,40.9,4.3c108.1,0,195.7-87.6,195.7-195.7
		S303.8,0,195.7,0z"/>
	<path class="st1" d="M154.9,4.3v286.2v96.7c0,0,0,0,0,0L154.9,4.3C154.9,4.3,154.9,4.3,154.9,4.3z"/>
</g>
<circle class="st2" cx="154.9" cy="201.6" r="82.5"/>
<path class="st3" d="M195,235.4c0,0-10.4,24.8-43.2,23c-32.8-1.7-41.5-23-41.5-23v-80.6H195V235.4z"/>
<path class="st4" d="M160.4,186.5c0,0-1.8,4.2-7.3,3.9c-5.6-0.3-7-3.9-7-3.9v-13.7h14.4V186.5z"/>
<path class="st4" d="M160.4,233.9c0,0-1.8,4.2-7.3,3.9c-5.6-0.3-7-3.9-7-3.9v-13.7h14.4V233.9z"/>
<path class="st4" d="M141.6,211.2c0,0-1.8,4.2-7.3,3.9s-7-3.9-7-3.9v-13.7h14.4V211.2z"/>
<path class="st4" d="M160.4,211.2c0,0-1.8,4.2-7.3,3.9c-5.6-0.3-7-3.9-7-3.9v-13.7h14.4V211.2z"/>
<path class="st4" d="M179.1,211.2c0,0-1.8,4.2-7.3,3.9c-5.6-0.3-7-3.9-7-3.9v-13.7h14.4V211.2z"/>
</svg>
