<?xml version="1.0" encoding="utf-8"?>
<!-- Generator: Adobe Illustrator 21.1.0, SVG Export Plug-In . SVG Version: 6.00 Build 0)  -->
<svg version="1.1" id="Layer_1" xmlns="http://www.w3.org/2000/svg" xmlns:xlink="http://www.w3.org/1999/xlink" x="0px" y="0px"
	 viewBox="0 0 43.7 43.7" style="enable-background:new 0 0 43.7 43.7;" xml:space="preserve">
<style type="text/css">
	.st0{fill:#ED1C24;}
	.st1{fill:#FFFFFF;}
</style>
<g>
	<path class="st0" d="M0.2,24.6C0.4,26.9,1.1,29,2,31h0c3.1,6.8,9.5,11.6,17.2,12.5V24.6H0.2z"/>
	<path class="st0" d="M19.2,0.2C11.5,1.1,5.1,6,2,12.8c-1,2-1.6,4.2-1.9,6.6h19.1V0.2z"/>
	<path class="st0" d="M43.6,19.4c-0.3-2.3-0.9-4.5-1.9-6.6C38.6,6,32.2,1.1,24.5,0.2v19.2H43.6z"/>
	<path class="st0" d="M24.5,24.6v18.9c7.7-0.9,14.2-5.8,17.3-12.6h-0.1c0.9-2,1.5-4.1,1.8-6.3H24.5z"/>
	<path class="st1" d="M43.5,24.6c0.1-0.9,0.2-1.8,0.2-2.7c0-0.9-0.1-1.7-0.1-2.5H24.5V0.2C23.6,0.1,22.8,0,21.9,0
		c-0.9,0-1.8,0.1-2.7,0.2v19.2H0.1C0,20.2,0,21,0,21.9c0,0.9,0.1,1.8,0.2,2.7h19.1v18.9c0.9,0.1,1.8,0.2,2.7,0.2
		c0.9,0,1.7-0.1,2.6-0.2V24.6H43.5z"/>
</g>
</svg>
