<!-- Generator: Adobe Illustrator 22.1.0, SVG Export Plug-In  -->
<svg version="1.1"
	 xmlns="http://www.w3.org/2000/svg" xmlns:xlink="http://www.w3.org/1999/xlink" xmlns:a="http://ns.adobe.com/AdobeSVGViewerExtensions/3.0/"
	 x="0px" y="0px" width="322px" height="322px" viewBox="0 0 322 322" style="enable-background:new 0 0 322 322;"
	 xml:space="preserve">
<style type="text/css">
	.st0{fill:#0068A9;}
	.st1{fill:#FFCE00;}
</style>
<defs>
</defs>
<g>
	<g>
		<path class="st0" d="M1.4,140H124V4.3C59.6,19.4,10.1,73.3,1.4,140z"/>
		<path class="st0" d="M188,2.3V140h132.6C311.5,69.9,257.3,14,188,2.3z"/>
		<path class="st0" d="M124,317.7V204H5.8C21.4,260.3,66.8,304.3,124,317.7z"/>
		<path class="st0" d="M188,319.7c61.9-10.4,111.7-56.2,128.2-115.7H188V319.7z"/>
	</g>
	<path class="st1" d="M320.6,140H188V2.3C179.2,0.8,170.2,0,161,0c-12.7,0-25.1,1.5-37,4.3V140H1.4C0.5,146.9,0,153.9,0,161
		c0,14.9,2,29.3,5.8,43H124v113.7c11.9,2.8,24.3,4.3,37,4.3c9.2,0,18.2-0.8,27-2.3V204h128.2c3.8-13.7,5.8-28.1,5.8-43
		C322,153.9,321.5,146.9,320.6,140z"/>
</g>
</svg>
